<svg width="117" height="25" viewBox="0 0 117 25" fill="none" xmlns="http://www.w3.org/2000/svg">
<path d="M0.792 9.552C0.792 7.888 1.152 6.408 1.872 5.112C2.592 3.8 3.592 2.784 4.872 2.064C6.168 1.328 7.632 0.959999 9.264 0.959999C11.264 0.959999 12.976 1.488 14.4 2.544C15.824 3.6 16.776 5.04 17.256 6.864H12.744C12.408 6.16 11.928 5.624 11.304 5.256C10.696 4.888 10 4.704 9.216 4.704C7.952 4.704 6.928 5.144 6.144 6.024C5.36 6.904 4.968 8.08 4.968 9.552C4.968 11.024 5.36 12.2 6.144 13.08C6.928 13.96 7.952 14.4 9.216 14.4C10 14.4 10.696 14.216 11.304 13.848C11.928 13.48 12.408 12.944 12.744 12.24H17.256C16.776 14.064 15.824 15.504 14.4 16.56C12.976 17.6 11.264 18.12 9.264 18.12C7.632 18.12 6.168 17.76 4.872 17.04C3.592 16.304 2.592 15.288 1.872 13.992C1.152 12.696 0.792 11.216 0.792 9.552ZM18.9533 11.28C18.9533 9.904 19.2093 8.696 19.7213 7.656C20.2493 6.616 20.9613 5.816 21.8573 5.256C22.7533 4.696 23.7533 4.416 24.8573 4.416C25.8013 4.416 26.6253 4.608 27.3293 4.992C28.0493 5.376 28.6013 5.88 28.9853 6.504V4.608H33.0893V18H28.9853V16.104C28.5853 16.728 28.0253 17.232 27.3053 17.616C26.6013 18 25.7773 18.192 24.8333 18.192C23.7453 18.192 22.7533 17.912 21.8573 17.352C20.9613 16.776 20.2493 15.968 19.7213 14.928C19.2093 13.872 18.9533 12.656 18.9533 11.28ZM28.9853 11.304C28.9853 10.28 28.6973 9.472 28.1213 8.88C27.5613 8.288 26.8733 7.992 26.0573 7.992C25.2413 7.992 24.5453 8.288 23.9693 8.88C23.4093 9.456 23.1293 10.256 23.1293 11.28C23.1293 12.304 23.4093 13.12 23.9693 13.728C24.5453 14.32 25.2413 14.616 26.0573 14.616C26.8733 14.616 27.5613 14.32 28.1213 13.728C28.6973 13.136 28.9853 12.328 28.9853 11.304ZM43.5223 14.52V18H41.4343C39.9463 18 38.7863 17.64 37.9543 16.92C37.1223 16.184 36.7063 14.992 36.7063 13.344V8.016H35.0743V4.608H36.7063V1.344H40.8103V4.608H43.4983V8.016H40.8103V13.392C40.8103 13.792 40.9063 14.08 41.0983 14.256C41.2903 14.432 41.6103 14.52 42.0583 14.52H43.5223ZM58.4323 11.088C58.4323 11.472 58.4083 11.872 58.3603 12.288H49.0723C49.1363 13.12 49.4003 13.76 49.8643 14.208C50.3443 14.64 50.9283 14.856 51.6163 14.856C52.6403 14.856 53.3523 14.424 53.7523 13.56H58.1203C57.8963 14.44 57.4883 15.232 56.8963 15.936C56.3203 16.64 55.5923 17.192 54.7123 17.592C53.8323 17.992 52.8483 18.192 51.7603 18.192C50.4483 18.192 49.2803 17.912 48.2563 17.352C47.2323 16.792 46.4323 15.992 45.8563 14.952C45.2803 13.912 44.9923 12.696 44.9923 11.304C44.9923 9.912 45.2723 8.696 45.8323 7.656C46.4083 6.616 47.2083 5.816 48.2323 5.256C49.2563 4.696 50.4323 4.416 51.7603 4.416C53.0563 4.416 54.2083 4.688 55.2163 5.232C56.2243 5.776 57.0083 6.552 57.5683 7.56C58.1443 8.568 58.4323 9.744 58.4323 11.088ZM54.2323 10.008C54.2323 9.304 53.9923 8.744 53.5123 8.328C53.0323 7.912 52.4323 7.704 51.7123 7.704C51.0243 7.704 50.4403 7.904 49.9603 8.304C49.4963 8.704 49.2083 9.272 49.0963 10.008H54.2323ZM65.6854 4.416C66.6294 4.416 67.4534 4.608 68.1574 4.992C68.8774 5.376 69.4294 5.88 69.8134 6.504V4.608H73.9174V17.976C73.9174 19.208 73.6694 20.32 73.1734 21.312C72.6934 22.32 71.9494 23.12 70.9414 23.712C69.9494 24.304 68.7094 24.6 67.2214 24.6C65.2374 24.6 63.6294 24.128 62.3974 23.184C61.1654 22.256 60.4614 20.992 60.2854 19.392H64.3414C64.4694 19.904 64.7734 20.304 65.2534 20.592C65.7334 20.896 66.3254 21.048 67.0294 21.048C67.8774 21.048 68.5494 20.8 69.0454 20.304C69.5574 19.824 69.8134 19.048 69.8134 17.976V16.08C69.4134 16.704 68.8614 17.216 68.1574 17.616C67.4534 18 66.6294 18.192 65.6854 18.192C64.5814 18.192 63.5814 17.912 62.6854 17.352C61.7894 16.776 61.0774 15.968 60.5494 14.928C60.0374 13.872 59.7814 12.656 59.7814 11.28C59.7814 9.904 60.0374 8.696 60.5494 7.656C61.0774 6.616 61.7894 5.816 62.6854 5.256C63.5814 4.696 64.5814 4.416 65.6854 4.416ZM69.8134 11.304C69.8134 10.28 69.5254 9.472 68.9494 8.88C68.3894 8.288 67.7014 7.992 66.8854 7.992C66.0694 7.992 65.3734 8.288 64.7974 8.88C64.2374 9.456 63.9574 10.256 63.9574 11.28C63.9574 12.304 64.2374 13.12 64.7974 13.728C65.3734 14.32 66.0694 14.616 66.8854 14.616C67.7014 14.616 68.3894 14.32 68.9494 13.728C69.5254 13.136 69.8134 12.328 69.8134 11.304ZM82.9824 18.192C81.6704 18.192 80.4864 17.912 79.4304 17.352C78.3904 16.792 77.5664 15.992 76.9584 14.952C76.3664 13.912 76.0704 12.696 76.0704 11.304C76.0704 9.928 76.3744 8.72 76.9824 7.68C77.5904 6.624 78.4224 5.816 79.4784 5.256C80.5344 4.696 81.7184 4.416 83.0304 4.416C84.3424 4.416 85.5264 4.696 86.5824 5.256C87.6384 5.816 88.4704 6.624 89.0784 7.68C89.6864 8.72 89.9904 9.928 89.9904 11.304C89.9904 12.68 89.6784 13.896 89.0544 14.952C88.4464 15.992 87.6064 16.792 86.5344 17.352C85.4784 17.912 84.2944 18.192 82.9824 18.192ZM82.9824 14.64C83.7664 14.64 84.4304 14.352 84.9744 13.776C85.5344 13.2 85.8144 12.376 85.8144 11.304C85.8144 10.232 85.5424 9.408 84.9984 8.832C84.4704 8.256 83.8144 7.968 83.0304 7.968C82.2304 7.968 81.5664 8.256 81.0384 8.832C80.5104 9.392 80.2464 10.216 80.2464 11.304C80.2464 12.376 80.5024 13.2 81.0144 13.776C81.5424 14.352 82.1984 14.64 82.9824 14.64ZM96.2717 6.84C96.7517 6.104 97.3517 5.528 98.0717 5.112C98.7917 4.68 99.5917 4.464 100.472 4.464V8.808H99.3437C98.3197 8.808 97.5517 9.032 97.0397 9.48C96.5277 9.912 96.2717 10.68 96.2717 11.784V18H92.1677V4.608H96.2717V6.84ZM116.113 4.608L107.713 24.36H103.297L106.369 17.544L100.921 4.608H105.505L108.601 12.984L111.673 4.608H116.113Z" fill="black"/>
</svg>
