<svg width="309" height="21" viewBox="0 0 309 21" fill="none" xmlns="http://www.w3.org/2000/svg">
<path d="M5.528 3.008V20H0.2V3.008H5.528ZM12.8544 13.232C12.8544 11.808 13.0944 10.576 13.5744 9.536C14.0704 8.48 14.7424 7.68 15.5904 7.136C16.4384 6.576 17.3904 6.296 18.4464 6.296C19.3264 6.296 20.0784 6.48 20.7024 6.848C21.3424 7.2 21.8304 7.688 22.1664 8.312V2.24H27.4944V20H22.1664V18.152C21.8304 18.776 21.3424 19.272 20.7024 19.64C20.0784 19.992 19.3264 20.168 18.4464 20.168C17.3904 20.168 16.4384 19.896 15.5904 19.352C14.7424 18.792 14.0704 17.992 13.5744 16.952C13.0944 15.896 12.8544 14.656 12.8544 13.232ZM22.1904 13.232C22.1904 12.512 22.0064 11.952 21.6384 11.552C21.2704 11.152 20.7984 10.952 20.2224 10.952C19.6464 10.952 19.1744 11.152 18.8064 11.552C18.4384 11.952 18.2544 12.512 18.2544 13.232C18.2544 13.952 18.4384 14.512 18.8064 14.912C19.1744 15.312 19.6464 15.512 20.2224 15.512C20.7984 15.512 21.2704 15.312 21.6384 14.912C22.0064 14.512 22.1904 13.952 22.1904 13.232ZM48.6309 13.112C48.6309 13.48 48.6069 13.832 48.5589 14.168H39.9909C40.0709 15.336 40.5589 15.92 41.4549 15.92C42.0309 15.92 42.4469 15.656 42.7029 15.128H48.3429C48.1509 16.088 47.7429 16.952 47.1189 17.72C46.5109 18.472 45.7349 19.072 44.7909 19.52C43.8629 19.952 42.8389 20.168 41.7189 20.168C40.3749 20.168 39.1749 19.888 38.1189 19.328C37.0789 18.768 36.2629 17.968 35.6709 16.928C35.0949 15.872 34.8069 14.64 34.8069 13.232C34.8069 11.824 35.0949 10.6 35.6709 9.56C36.2629 8.504 37.0789 7.696 38.1189 7.136C39.1749 6.576 40.3749 6.296 41.7189 6.296C43.0629 6.296 44.2549 6.576 45.2949 7.136C46.3509 7.68 47.1669 8.464 47.7429 9.488C48.3349 10.512 48.6309 11.72 48.6309 13.112ZM43.2309 11.84C43.2309 11.392 43.0869 11.056 42.7989 10.832C42.5109 10.592 42.1509 10.472 41.7189 10.472C40.7749 10.472 40.2229 10.928 40.0629 11.84H43.2309ZM55.2359 13.232C55.2359 11.808 55.4759 10.576 55.9559 9.536C56.4519 8.48 57.1239 7.68 57.9719 7.136C58.8199 6.576 59.7719 6.296 60.8279 6.296C61.7079 6.296 62.4679 6.48 63.1079 6.848C63.7479 7.2 64.2359 7.688 64.5719 8.312V6.464H69.8759V20H64.5719V18.152C64.2359 18.776 63.7479 19.272 63.1079 19.64C62.4679 19.992 61.7079 20.168 60.8279 20.168C59.7719 20.168 58.8199 19.896 57.9719 19.352C57.1239 18.792 56.4519 17.992 55.9559 16.952C55.4759 15.896 55.2359 14.656 55.2359 13.232ZM64.5719 13.232C64.5719 12.512 64.3879 11.952 64.0199 11.552C63.6519 11.152 63.1799 10.952 62.6039 10.952C62.0279 10.952 61.5559 11.152 61.1879 11.552C60.8199 11.952 60.6359 12.512 60.6359 13.232C60.6359 13.952 60.8199 14.512 61.1879 14.912C61.5559 15.312 62.0279 15.512 62.6039 15.512C63.1799 15.512 63.6519 15.312 64.0199 14.912C64.3879 14.512 64.5719 13.952 64.5719 13.232ZM83.2364 2.24V20H77.9084V2.24H83.2364ZM102.393 3.008H107.673L104.841 10.088H101.337L102.393 3.008ZM136.135 3.008V20H130.831V11.528L128.215 20H123.655L121.039 11.528V20H115.711V3.008H122.239L125.983 13.208L129.631 3.008H136.135ZM146.867 5.384C145.939 5.384 145.195 5.136 144.635 4.64C144.075 4.144 143.795 3.52 143.795 2.768C143.795 2 144.075 1.368 144.635 0.871999C145.195 0.359999 145.939 0.103999 146.867 0.103999C147.779 0.103999 148.515 0.359999 149.075 0.871999C149.635 1.368 149.915 2 149.915 2.768C149.915 3.52 149.635 4.144 149.075 4.64C148.515 5.136 147.779 5.384 146.867 5.384ZM149.507 6.464V20H144.179V6.464H149.507ZM162.882 2.24V20H157.554V2.24H162.882ZM176.256 2.24V20H170.928V2.24H176.256ZM197.406 13.112C197.406 13.48 197.382 13.832 197.334 14.168H188.766C188.846 15.336 189.334 15.92 190.23 15.92C190.806 15.92 191.222 15.656 191.478 15.128H197.118C196.926 16.088 196.518 16.952 195.894 17.72C195.286 18.472 194.51 19.072 193.566 19.52C192.638 19.952 191.614 20.168 190.494 20.168C189.15 20.168 187.95 19.888 186.894 19.328C185.854 18.768 185.038 17.968 184.446 16.928C183.87 15.872 183.582 14.64 183.582 13.232C183.582 11.824 183.87 10.6 184.446 9.56C185.038 8.504 185.854 7.696 186.894 7.136C187.95 6.576 189.15 6.296 190.494 6.296C191.838 6.296 193.03 6.576 194.07 7.136C195.126 7.68 195.942 8.464 196.518 9.488C197.11 10.512 197.406 11.72 197.406 13.112ZM192.006 11.84C192.006 11.392 191.862 11.056 191.574 10.832C191.286 10.592 190.926 10.472 190.494 10.472C189.55 10.472 188.998 10.928 188.838 11.84H192.006ZM214.212 6.368C215.764 6.368 216.972 6.888 217.836 7.928C218.716 8.968 219.156 10.376 219.156 12.152V20H213.852V12.824C213.852 12.184 213.676 11.68 213.324 11.312C212.988 10.928 212.532 10.736 211.956 10.736C211.364 10.736 210.9 10.928 210.564 11.312C210.228 11.68 210.06 12.184 210.06 12.824V20H204.732V6.464H210.06V8.528C210.476 7.888 211.028 7.368 211.716 6.968C212.42 6.568 213.252 6.368 214.212 6.368ZM236.586 6.368C238.138 6.368 239.346 6.888 240.21 7.928C241.09 8.968 241.53 10.376 241.53 12.152V20H236.226V12.824C236.226 12.184 236.05 11.68 235.698 11.312C235.362 10.928 234.906 10.736 234.33 10.736C233.738 10.736 233.274 10.928 232.938 11.312C232.602 11.68 232.434 12.184 232.434 12.824V20H227.106V6.464H232.434V8.528C232.85 7.888 233.402 7.368 234.09 6.968C234.794 6.568 235.626 6.368 236.586 6.368ZM252.168 5.384C251.24 5.384 250.496 5.136 249.936 4.64C249.376 4.144 249.096 3.52 249.096 2.768C249.096 2 249.376 1.368 249.936 0.871999C250.496 0.359999 251.24 0.103999 252.168 0.103999C253.08 0.103999 253.816 0.359999 254.376 0.871999C254.936 1.368 255.216 2 255.216 2.768C255.216 3.52 254.936 4.144 254.376 4.64C253.816 5.136 253.08 5.384 252.168 5.384ZM254.808 6.464V20H249.48V6.464H254.808ZM277.183 6.464V20H271.855V17.936C271.439 18.576 270.879 19.096 270.175 19.496C269.487 19.896 268.663 20.096 267.703 20.096C266.151 20.096 264.935 19.576 264.055 18.536C263.191 17.496 262.759 16.088 262.759 14.312V6.464H268.063V13.64C268.063 14.28 268.231 14.792 268.567 15.176C268.919 15.544 269.383 15.728 269.959 15.728C270.551 15.728 271.015 15.544 271.351 15.176C271.687 14.792 271.855 14.28 271.855 13.64V6.464H277.183ZM303.301 6.368C305.029 6.368 306.365 6.888 307.309 7.928C308.269 8.968 308.749 10.376 308.749 12.152V20H303.445V12.824C303.445 12.248 303.269 11.8 302.917 11.48C302.581 11.144 302.125 10.976 301.549 10.976C300.957 10.976 300.493 11.144 300.157 11.48C299.821 11.8 299.653 12.248 299.653 12.824V20H294.349V12.824C294.349 12.248 294.173 11.8 293.821 11.48C293.485 11.144 293.029 10.976 292.453 10.976C291.861 10.976 291.397 11.144 291.061 11.48C290.725 11.8 290.557 12.248 290.557 12.824V20H285.229V6.464H290.557V8.288C290.941 7.712 291.461 7.248 292.117 6.896C292.789 6.544 293.573 6.368 294.469 6.368C295.445 6.368 296.309 6.584 297.061 7.016C297.813 7.432 298.413 8.024 298.861 8.792C299.357 8.088 299.989 7.512 300.757 7.064C301.525 6.6 302.373 6.368 303.301 6.368Z" fill="#4134D3"/>
</svg>
