<svg width="135" height="27" viewBox="0 0 135 27" fill="none" xmlns="http://www.w3.org/2000/svg">
<path d="M9.87437 6.368C11.4264 6.368 12.6344 6.888 13.4984 7.928C14.3784 8.968 14.8184 10.376 14.8184 12.152V20H9.51437V12.824C9.51437 12.184 9.33837 11.68 8.98637 11.312C8.65037 10.928 8.19437 10.736 7.61837 10.736C7.02637 10.736 6.56237 10.928 6.22637 11.312C5.89037 11.68 5.72237 12.184 5.72237 12.824V20H0.394374V6.464H5.72237V8.528C6.13837 7.888 6.69037 7.368 7.37837 6.968C8.08237 6.568 8.91437 6.368 9.87437 6.368ZM22.1208 6.296C23.0008 6.296 23.7608 6.48 24.4008 6.848C25.0408 7.2 25.5288 7.688 25.8648 8.312V6.464H31.1688V19.76C31.1688 21.024 30.9368 22.176 30.4728 23.216C30.0088 24.256 29.2568 25.088 28.2168 25.712C27.1928 26.336 25.8728 26.648 24.2568 26.648C22.0808 26.648 20.3528 26.136 19.0727 25.112C17.8087 24.104 17.0887 22.728 16.9127 20.984H22.1448C22.2888 21.688 22.8648 22.04 23.8728 22.04C24.4968 22.04 24.9848 21.88 25.3368 21.56C25.6888 21.24 25.8648 20.64 25.8648 19.76V18.152C25.5288 18.776 25.0408 19.272 24.4008 19.64C23.7608 19.992 23.0008 20.168 22.1208 20.168C21.0648 20.168 20.1128 19.896 19.2648 19.352C18.4167 18.792 17.7447 17.992 17.2487 16.952C16.7687 15.896 16.5287 14.656 16.5287 13.232C16.5287 11.808 16.7687 10.576 17.2487 9.536C17.7447 8.48 18.4167 7.68 19.2648 7.136C20.1128 6.576 21.0648 6.296 22.1208 6.296ZM25.8648 13.232C25.8648 12.512 25.6808 11.952 25.3128 11.552C24.9448 11.152 24.4728 10.952 23.8968 10.952C23.3208 10.952 22.8488 11.152 22.4808 11.552C22.1128 11.952 21.9288 12.512 21.9288 13.232C21.9288 13.952 22.1128 14.512 22.4808 14.912C22.8488 15.312 23.3208 15.512 23.8968 15.512C24.4728 15.512 24.9448 15.312 25.3128 14.912C25.6808 14.512 25.8648 13.952 25.8648 13.232ZM36.3693 5.384C35.4413 5.384 34.6973 5.136 34.1373 4.64C33.5773 4.144 33.2973 3.52 33.2973 2.768C33.2973 2 33.5773 1.368 34.1373 0.871999C34.6973 0.359999 35.4413 0.103999 36.3693 0.103999C37.2813 0.103999 38.0173 0.359999 38.5773 0.871999C39.1373 1.368 39.4173 2 39.4173 2.768C39.4173 3.52 39.1373 4.144 38.5773 4.64C38.0173 5.136 37.2813 5.384 36.3693 5.384ZM39.0093 6.464V20H33.6813V6.464H39.0093ZM51.0156 6.368C52.5676 6.368 53.7756 6.888 54.6396 7.928C55.5196 8.968 55.9596 10.376 55.9596 12.152V20H50.6556V12.824C50.6556 12.184 50.4796 11.68 50.1276 11.312C49.7916 10.928 49.3356 10.736 48.7596 10.736C48.1676 10.736 47.7036 10.928 47.3676 11.312C47.0316 11.68 46.8636 12.184 46.8636 12.824V20H41.5356V6.464H46.8636V8.528C47.2796 7.888 47.8316 7.368 48.5196 6.968C49.2236 6.568 50.0556 6.368 51.0156 6.368ZM71.494 13.112C71.494 13.48 71.47 13.832 71.422 14.168H62.854C62.934 15.336 63.422 15.92 64.318 15.92C64.894 15.92 65.31 15.656 65.566 15.128H71.206C71.014 16.088 70.606 16.952 69.982 17.72C69.374 18.472 68.598 19.072 67.654 19.52C66.726 19.952 65.702 20.168 64.582 20.168C63.238 20.168 62.038 19.888 60.982 19.328C59.942 18.768 59.126 17.968 58.534 16.928C57.958 15.872 57.67 14.64 57.67 13.232C57.67 11.824 57.958 10.6 58.534 9.56C59.126 8.504 59.942 7.696 60.982 7.136C62.038 6.576 63.238 6.296 64.582 6.296C65.926 6.296 67.118 6.576 68.158 7.136C69.214 7.68 70.03 8.464 70.606 9.488C71.198 10.512 71.494 11.72 71.494 13.112ZM66.094 11.84C66.094 11.392 65.95 11.056 65.662 10.832C65.374 10.592 65.014 10.472 64.582 10.472C63.638 10.472 63.086 10.928 62.926 11.84H66.094ZM78.6271 8.312C78.9631 7.688 79.4431 7.2 80.0671 6.848C80.7071 6.48 81.4671 6.296 82.3471 6.296C83.4031 6.296 84.3551 6.576 85.2031 7.136C86.0511 7.68 86.7151 8.48 87.1951 9.536C87.6911 10.576 87.9391 11.808 87.9391 13.232C87.9391 14.656 87.6911 15.896 87.1951 16.952C86.7151 17.992 86.0511 18.792 85.2031 19.352C84.3551 19.896 83.4031 20.168 82.3471 20.168C81.4671 20.168 80.7071 19.992 80.0671 19.64C79.4431 19.272 78.9631 18.776 78.6271 18.152V26.48H73.2991V6.464H78.6271V8.312ZM82.5391 13.232C82.5391 12.512 82.3551 11.952 81.9871 11.552C81.6191 11.152 81.1471 10.952 80.5711 10.952C79.9951 10.952 79.5231 11.152 79.1551 11.552C78.7871 11.952 78.6031 12.512 78.6031 13.232C78.6031 13.952 78.7871 14.512 79.1551 14.912C79.5231 15.312 79.9951 15.512 80.5711 15.512C81.1471 15.512 81.6191 15.312 81.9871 14.912C82.3551 14.512 82.5391 13.952 82.5391 13.232ZM96.1636 20.168C94.8036 20.168 93.5796 19.888 92.4916 19.328C91.4036 18.768 90.5476 17.968 89.9236 16.928C89.3156 15.872 89.0116 14.64 89.0116 13.232C89.0116 11.824 89.3156 10.6 89.9236 9.56C90.5476 8.504 91.4036 7.696 92.4916 7.136C93.5796 6.576 94.8036 6.296 96.1636 6.296C97.5236 6.296 98.7476 6.576 99.8356 7.136C100.924 7.696 101.772 8.504 102.38 9.56C103.004 10.6 103.316 11.824 103.316 13.232C103.316 14.64 103.004 15.872 102.38 16.928C101.772 17.968 100.924 18.768 99.8356 19.328C98.7476 19.888 97.5236 20.168 96.1636 20.168ZM96.1636 15.56C96.6596 15.56 97.0756 15.368 97.4116 14.984C97.7476 14.584 97.9156 14 97.9156 13.232C97.9156 12.464 97.7476 11.888 97.4116 11.504C97.0756 11.104 96.6596 10.904 96.1636 10.904C95.6676 10.904 95.2516 11.104 94.9156 11.504C94.5796 11.888 94.4116 12.464 94.4116 13.232C94.4116 14 94.5716 14.584 94.8916 14.984C95.2276 15.368 95.6516 15.56 96.1636 15.56ZM107.749 20.192C106.821 20.192 106.077 19.944 105.517 19.448C104.957 18.952 104.677 18.328 104.677 17.576C104.677 16.808 104.957 16.176 105.517 15.68C106.077 15.168 106.821 14.912 107.749 14.912C108.661 14.912 109.397 15.168 109.957 15.68C110.517 16.176 110.797 16.808 110.797 17.576C110.797 18.328 110.517 18.952 109.957 19.448C109.397 19.944 108.661 20.192 107.749 20.192ZM115.581 5.384C114.653 5.384 113.909 5.136 113.349 4.64C112.789 4.144 112.509 3.52 112.509 2.768C112.509 2 112.789 1.368 113.349 0.871999C113.909 0.359999 114.653 0.103999 115.581 0.103999C116.493 0.103999 117.229 0.359999 117.789 0.871999C118.349 1.368 118.629 2 118.629 2.768C118.629 3.52 118.349 4.144 117.789 4.64C117.229 5.136 116.493 5.384 115.581 5.384ZM118.221 6.464V20H112.893V6.464H118.221ZM127.18 20.168C125.82 20.168 124.596 19.888 123.508 19.328C122.42 18.768 121.564 17.968 120.94 16.928C120.332 15.872 120.028 14.64 120.028 13.232C120.028 11.824 120.332 10.6 120.94 9.56C121.564 8.504 122.42 7.696 123.508 7.136C124.596 6.576 125.82 6.296 127.18 6.296C128.54 6.296 129.764 6.576 130.852 7.136C131.94 7.696 132.788 8.504 133.396 9.56C134.02 10.6 134.332 11.824 134.332 13.232C134.332 14.64 134.02 15.872 133.396 16.928C132.788 17.968 131.94 18.768 130.852 19.328C129.764 19.888 128.54 20.168 127.18 20.168ZM127.18 15.56C127.676 15.56 128.092 15.368 128.428 14.984C128.764 14.584 128.932 14 128.932 13.232C128.932 12.464 128.764 11.888 128.428 11.504C128.092 11.104 127.676 10.904 127.18 10.904C126.684 10.904 126.268 11.104 125.932 11.504C125.596 11.888 125.428 12.464 125.428 13.232C125.428 14 125.588 14.584 125.908 14.984C126.244 15.368 126.668 15.56 127.18 15.56Z" fill="black"/>
</svg>
